<?xml version="1.0" encoding="UTF-8" standalone="no"?>
<svg
   xmlns:dc="http://purl.org/dc/elements/1.1/"
   xmlns:cc="http://creativecommons.org/ns#"
   xmlns:rdf="http://www.w3.org/1999/02/22-rdf-syntax-ns#"
   xmlns:svg="http://www.w3.org/2000/svg"
   xmlns="http://www.w3.org/2000/svg"
   xmlns:xlink="http://www.w3.org/1999/xlink"
   xmlns:sodipodi="http://sodipodi.sourceforge.net/DTD/sodipodi-0.dtd"
   xmlns:inkscape="http://www.inkscape.org/namespaces/inkscape"
   inkscape:export-ydpi="96"
   inkscape:export-xdpi="96"
   inkscape:export-filename="/home/vader/Pictures/EggHat.png"
   inkscape:version="1.0 (4035a4fb49, 2020-05-01)"
   sodipodi:docname="egghat.svg"
   id="svg8"
   version="1.1"
   viewBox="0 0 8 8.0000003"
   height="8"
   width="8">
  <defs
     id="defs2">
    <linearGradient
       id="linearGradient821"
       inkscape:collect="always">
      <stop
         id="stop817"
         offset="0"
         style="stop-color:#ffce68;stop-opacity:1" />
      <stop
         id="stop819"
         offset="1"
         style="stop-color:#ffab00;stop-opacity:1" />
    </linearGradient>
    <linearGradient
       gradientTransform="translate(-401.38175,1.2390152)"
       gradientUnits="userSpaceOnUse"
       y2="-1106.8054"
       x2="261.42859"
       y1="-876.09106"
       x1="72.14286"
       id="linearGradient823"
       xlink:href="#linearGradient821"
       inkscape:collect="always" />
    <filter
       height="1.1056269"
       y="-0.052813474"
       width="1.0879813"
       x="-0.043990649"
       id="filter5061"
       style="color-interpolation-filters:sRGB"
       inkscape:collect="always">
      <feGaussianBlur
         id="feGaussianBlur5063"
         stdDeviation="2.5063625"
         inkscape:collect="always" />
    </filter>
    <filter
       height="1.0907505"
       y="-0.04537525"
       width="1.1018941"
       x="-0.050947051"
       id="filter5089"
       style="color-interpolation-filters:sRGB"
       inkscape:collect="always">
      <feGaussianBlur
         id="feGaussianBlur5091"
         stdDeviation="3.0720259"
         inkscape:collect="always" />
    </filter>
  </defs>
  <sodipodi:namedview
     inkscape:document-rotation="0"
     inkscape:window-maximized="1"
     inkscape:window-y="0"
     inkscape:window-x="0"
     inkscape:window-height="1016"
     inkscape:window-width="1920"
     inkscape:lockguides="true"
     units="px"
     showgrid="false"
     inkscape:current-layer="layer1"
     inkscape:document-units="px"
     inkscape:cy="4.5098775"
     inkscape:cx="-5.9807325"
     inkscape:zoom="39.837117"
     inkscape:pageshadow="2"
     inkscape:pageopacity="0.0"
     borderopacity="1.0"
     bordercolor="#666666"
     pagecolor="#ffffff"
     id="base" />
  <metadata
     id="metadata5">
    <rdf:RDF>
      <cc:Work
         rdf:about="">
        <dc:format>image/svg+xml</dc:format>
        <dc:type
           rdf:resource="http://purl.org/dc/dcmitype/StillImage" />
        <dc:title></dc:title>
      </cc:Work>
    </rdf:RDF>
  </metadata>
  <g
     transform="translate(0,-822.51965)"
     id="layer1"
     inkscape:groupmode="layer"
     inkscape:label="Layer 1">
    <rect
       transform="scale(1,-1)"
       y="-1121.2806"
       x="-401.38174"
       height="300"
       width="300"
       id="rect815"
       style="fill:url(#linearGradient823);fill-opacity:1;stroke-width:0.772059" />
    <path
       transform="matrix(0.03050691,0,0,0.03050691,0.3711004,797.42713)"
       inkscape:connector-curvature="0"
       id="path5048"
       d="m 130.35355,828.54423 c -3.54993,-0.0502 -7.20009,0.10602 -10.85742,0.38867 -27.306537,2.11032 -40.493627,9.99342 -60.404291,25.11719 -22.143643,16.81989 -26.065868,35.88312 -25.976562,46.55468 0.249176,29.77559 3.29878,42.42905 15.347656,41.80469 3.711953,-0.19235 7.149946,-1.35866 10.443359,-3.11328 l 110.947258,-26.39844 -9.63085,-40.4707 c 5.92274,-6.30765 6.31,-12.79286 2.99218,-24.95898 -3.98221,-14.60247 -17.47828,-18.7062 -32.86133,-18.92383 z"
       style="opacity:0.3;fill:#000000;fill-opacity:1;stroke-width:0.506113;filter:url(#filter5061)" />
    <rect
       y="823.23395"
       x="-66.558434"
       height="46.42857"
       width="48.116882"
       id="rect825"
       style="fill:#ffab00;fill-opacity:0.972549;stroke-width:0.393939" />
    <path
       inkscape:connector-curvature="0"
       id="path850"
       d=""
       style="opacity:1;fill:#000000;fill-opacity:1;stroke-width:0.126269" />
    <path
       inkscape:connector-curvature="0"
       id="path852"
       d=""
       style="opacity:1;fill:#000000;fill-opacity:1;stroke-width:0.126269" />
    <circle
       r="0"
       style="opacity:1;fill:#ffffff;fill-opacity:1;stroke-width:0.861924"
       id="circle1580"
       cx="157.58665"
       cy="898.17334" />
    <circle
       style="fill:#ffce68;fill-opacity:1;stroke-width:1.18699"
       id="ellipse974"
       cx="138.84438"
       cy="944.85419"
       r="0" />
    <circle
       style="fill:#ffffff;fill-opacity:0.972222;stroke-width:1.18699"
       id="ellipse986"
       cx="150.71429"
       cy="975.37677"
       r="0" />
    <path
       transform="matrix(0.03050691,0,0,0.03050691,0.3711004,797.42713)"
       style="opacity:0.3;fill:#000000;fill-opacity:1;stroke-width:0.514061;filter:url(#filter5089)"
       d="M 169.85332,914.89853 62.797363,940.37154 c -0.27924,0.67994 -0.55804,1.35755 -0.8175,2.02448 -15.727602,40.42812 -15.113543,83.12848 1.55581,108.21158 2.67998,4.0327 8.85874,10.4845 13.03076,13.6086 8.62104,6.4564 20.67091,10.9425 34.516857,12.8489 v -0.011 c 1.83775,0.2656 8.31308,0.3962 14.39183,0.2932 11.58838,-0.185 15.31521,-0.7237 23.13393,-3.345 23.13169,-7.7545 39.56279,-27.2663 45.24493,-53.7259 1.56917,-7.307 1.92711,-21.90386 0.80038,-32.64416 -1.52789,-14.5644 -5.59248,-31.58126 -10.68312,-44.72287 -4.00052,-10.32735 -8.79418,-19.76174 -14.11792,-28.01325 z"
       id="path5046"
       inkscape:connector-curvature="0" />
    <path
       inkscape:connector-curvature="0"
       id="path848"
       d="m 5.4307725,825.33784 -3.2659464,0.77712 c -0.00852,0.0208 -0.017024,0.0415 -0.02494,0.0618 -0.4798004,1.23333 -0.4610674,2.53599 0.047463,3.3012 0.081758,0.12303 0.2702527,0.31985 0.3975281,0.41515 0.2630014,0.19697 0.6306056,0.33383 1.0530026,0.39199 v -3.4e-4 c 0.056064,0.008 0.2536064,0.0121 0.4390503,0.009 0.3535256,-0.005 0.4672197,-0.022 0.7057447,-0.10204 0.7056763,-0.23657 1.2069384,-0.83182 1.3802829,-1.63901 0.047871,-0.22291 0.05879,-0.66823 0.024417,-0.99588 -0.046611,-0.44431 -0.1706093,-0.96344 -0.3259091,-1.36436 -0.1220434,-0.31505 -0.2682832,-0.60287 -0.430694,-0.85459 z"
       style="opacity:1;fill:#ffffff;fill-opacity:1;stroke-width:0.0156824" />
    <path
       inkscape:connector-curvature="0"
       id="path850-5"
       d=""
       style="opacity:1;fill:#b2b2b2;fill-opacity:1;stroke-width:0.126269" />
    <path
       inkscape:connector-curvature="0"
       id="path852-6"
       d=""
       style="opacity:1;fill:#b2b2b2;fill-opacity:1;stroke-width:0.126269" />
    <path
       sodipodi:nodetypes="ccccc"
       inkscape:connector-curvature="0"
       id="rect1072"
       d="m 1.5220532,824.61887 3.6013493,-0.95134 0.3683838,1.54829 -3.7120525,0.88321 z"
       style="fill:#ffffff;fill-opacity:1;stroke-width:0.01544" />
    <path
       sodipodi:nodetypes="cssscc"
       inkscape:connector-curvature="0"
       id="path1095"
       d="m 5.1234025,823.66753 c 0.1703741,0.4474 0.072003,0.44189 -0.4538085,0.77677 -0.2991233,0.19051 -0.5895866,0.37525 -0.9981455,0.58873 -0.4085582,0.21348 -0.9257571,0.56713 -1.042539,0.65899 -1.0249898,0.80619 -0.69495,0.0325 -1.1032184,-0.71368 0.6857476,-0.9768 2.0929216,-0.10305 3.5977114,-1.31081 z"
       style="fill:#000000;fill-opacity:0.1;stroke:none;stroke-width:0.0337202" />
    <path
       sodipodi:nodetypes="ssssssss"
       inkscape:connector-curvature="0"
       id="path1093"
       d="m 2.1127845,823.42056 c -0.6755341,0.51313 -0.7951593,1.09469 -0.7924349,1.42023 0.0076,0.90837 0.1005882,1.29434 0.4681621,1.2753 0.3686287,-0.0191 0.6491616,-0.35128 0.9746983,-0.60233 0.5039455,-0.38864 0.9323097,-0.55578 1.9132801,-1.15468 0.6471348,-0.39509 0.7748572,-0.54492 0.6127615,-1.13931 -0.1495202,-0.54828 -0.73864,-0.61147 -1.3337002,-0.56549 -0.833038,0.0644 -1.235354,0.3049 -1.8427669,0.76628 z"
       style="fill:#ffffff;fill-opacity:1;stroke:none;stroke-width:0.0337202px;stroke-linecap:butt;stroke-linejoin:miter;stroke-opacity:1" />
    <path
       inkscape:connector-curvature="0"
       id="path1100"
       d="m 6.2029136,827.78037 a 3.2077652,3.2077652 0 0 1 -2.6820258,2.48604 c 0.038554,0.006 0.077436,0.0132 0.1169927,0.0187 v -4e-4 c 0.056064,0.008 0.2536064,0.0121 0.4390503,0.009 0.3535256,-0.005 0.4672197,-0.0221 0.7057447,-0.10205 0.7056763,-0.23655 1.2069384,-0.8318 1.3802829,-1.63901 0.037628,-0.17522 0.052038,-0.48731 0.039955,-0.7722 z"
       style="opacity:1;fill:#000000;fill-opacity:0.1;stroke-width:0.0156824" />
    <rect
       style="fill:#ffce68;fill-opacity:1;stroke-width:0.393939"
       id="rect4237"
       width="48.116882"
       height="46.42857"
       x="-66.558434"
       y="873.23395" />
    <path
       sodipodi:nodetypes="ccccccccc"
       inkscape:connector-curvature="0"
       id="path845"
       d="m 0.3711004,827.05291 c 0.3814273,0.94096 1.2950552,1.92672 2.3103917,1.92742 0.4629274,-6e-4 0.9165531,-0.13002 1.3101316,-0.37374 0.3984336,0.25318 0.8605206,0.38812 1.3325866,0.38915 1.010157,-9.1e-4 1.9200731,-0.98067 2.3046893,-1.91474 -0.5046932,0.73966 -1.3006557,0.8862 -2.0880563,0.88634 -0.5494566,-9.1e-4 -1.0873054,-0.15821 -1.5510729,-0.45287 -0.4580972,0.28369 -0.9860891,0.43431 -1.5249109,0.43505 -0.7908984,-0.001 -1.54161252,-0.14531 -2.0937591,-0.89661 z"
       style="opacity:1;fill:#603e1f;fill-opacity:1;stroke:none;stroke-width:0.0429528" />
  </g>
</svg>
